<?xml version="1.0" encoding="utf-8"?>
<!-- Generator: Adobe Illustrator 22.1.0, SVG Export Plug-In . SVG Version: 6.00 Build 0)  -->
<svg version="1.1" xmlns="http://www.w3.org/2000/svg" xmlns:xlink="http://www.w3.org/1999/xlink" x="0px" y="0px"
	 viewBox="0 0 2405.8 474.2" style="enable-background:new 0 0 2405.8 474.2;" xml:space="preserve">
<style type="text/css">
	.st0{fill:#FFFFFF;}
</style>
<g id="MARGENES">
</g>
<g id="GUIAS_TEXTO">
</g>
<g id="Layer_3_copy_2">
	<g>
		<g>
			<path class="st0" d="M794.7,397.1c0.4-5,0.3-10.4-0.2-16.6l-4.2-45.5c-0.6-6-0.4-13.2,0.1-23.3c-2.9,6.3-7.9,16.1-12.3,23.3
				l-27.3,45.7c-4.7,7.7-7.2,12.2-8.9,16.4h-41.8c0.1-4.5-0.1-7.8-0.9-16.7l-9.7-92.8c-0.9-7.9-2-15-3-19.2h47.8
				c-1.2,5.6-1.4,10.5-1.4,17l1.3,47c0,2.3-0.4,9.6-1,21.8c6.5-13,9.4-18.5,11.5-21.8l29.2-47.9c4.4-7,6.8-11.8,8.8-16.1h37.4
				c-0.2,4-0.1,8.4,0.8,15.6l4.7,47.7c0.4,4.9,0.5,10,0.1,22.6c1.2-2.9,1.2-2.9,4.1-9.4c1.5-3.4,4.9-10.8,6.4-13.3l25.1-46.1
				c4-7.1,6-11.6,7.5-17h47.7c-3.2,4.2-8,11.4-12.7,19.2l-57.6,92.7c-4.6,7.3-8,13.2-9.5,16.9H794.7z"/>
			<path class="st0" d="M977.5,268.3c-2.9,6.3-4.7,11.6-7.6,22.9l-21.4,82.9c-2.7,10.7-3.8,16.4-4.2,22.9H898
				c2.8-6.1,5-12.6,7.7-22.9l21.4-82.9c3-11.6,3.7-16.1,4.2-22.9H977.5z"/>
			<path class="st0" d="M1001.4,397.1c-14.5,0-23.1,0.1-31.3,0.5c2.7-5.5,4.8-12.2,7.6-22.6l21.1-81.7c2.8-10.8,4.1-17.5,4.7-24.9
				h45.8c-3.5,8.1-4.9,12.4-8,24.4l-19.8,76.8h50.9c17.8,0,25-0.1,35.1-1.1l-7.7,29.7c-7.6-0.8-17.7-1.1-34.6-1.1H1001.4z"/>
			<path class="st0" d="M1145.5,397.1c-14.5,0-23.1,0.1-31.2,0.5c2.7-5.5,4.8-12.2,7.5-22.6l21.1-81.7c2.8-10.8,4-17.5,4.7-24.9
				h45.8c-3.5,8.1-4.9,12.4-8,24.4l-19.8,76.8h50.9c17.8,0,25-0.1,35.1-1.1l-7.7,29.7c-7.6-0.8-17.8-1.1-34.6-1.1H1145.5z"/>
			<path class="st0" d="M1337.3,374.2c-2.1,8-3.4,14.8-4.2,22.9h-45.8c2.9-7.1,5.3-14.2,7.6-22.9l7.4-28.7l-33.2-58.5
				c-2.5-4.8-5.9-9.9-12-18.7h53.2c0.9,5.4,2.2,9.4,5.7,16.3l15.2,31.4l31.4-31.3c7.1-7.1,11.3-11.9,13.9-16.4h53.1
				c-7.7,6.5-18,15.3-21.6,18.7l-63.2,58.5L1337.3,374.2z"/>
			<path class="st0" d="M1511.8,397.1c-16,0-22.2,0.1-31.3,0.5c3-6.7,4.8-11.9,7.6-22.7l21.8-84.6c2.1-8.2,3.5-14.9,4.1-22.3
				c10.6,0.5,13.5,0.5,30.7,0.5h55.1c34,0,50.9,12.1,45.6,32.5c-2.4,9.5-8.5,16.9-17.9,22.1c-5.3,3-9.5,4.5-18.8,6.8
				c9.9,1.7,14.8,3.6,20,7.4c7.5,5.9,10,14.3,7.4,24.4c-5.7,22.3-30.6,35.5-67.2,35.5H1511.8z M1530.1,371.5h38.7
				c13.2,0,22.6-5.4,25-14.5c2.3-9-4.4-14.2-17.8-14.2h-38.4L1530.1,371.5z M1580.9,318c11.2,0,19.3-4.8,21.3-12.4
				c2-7.6-3.4-11.9-15.4-11.9h-36.6l-6.3,24.3H1580.9z"/>
			<path class="st0" d="M1842,268.3c-2.9,6.7-4.8,12.2-7.7,23.4l-13.7,53.2c-9.1,35.3-43.1,55.2-93.7,55.2c-26,0-45.8-5.4-55.9-15.1
				c-9.7-9.6-12.5-23.1-8.1-40.4l13.7-52.9c2.8-10.7,4.1-17.5,4.3-23.4h45.4c-2.7,5.7-4.8,11.9-7.7,23.4l-13.7,53.2
				c-5,19.5,4.6,28.8,29.1,28.8c25.2,0,39.6-9.3,44.6-28.8l13.7-53.2c3-11.6,3.8-16.4,4.3-23.4H1842z"/>
			<path class="st0" d="M1883.6,355.2c-0.6,5.6,0.1,8.3,2.5,11.4c3.8,4.7,12,7.3,22.7,7.3c16.1,0,27.2-5.3,29.4-13.9
				c1.3-4.8-1-9-6-10.8c-4-1.5-8.9-2.6-29.9-6.3c-18.5-3.1-24.8-4.9-31.5-9c-11.5-6.8-15.9-17.2-12.7-29.7
				c6.2-23.8,36.1-38.8,77.5-38.8c26.7,0,45.5,6,53.9,17.6c3.9,5.1,5.2,9.8,5.7,18.6l-45.5,3.6c0.1-10.1-6.4-14.2-22.4-14.2
				c-12.8,0-23.6,5.1-25.4,12.2c-1.1,4.4,1.2,7.6,7.3,9.9c3.8,1.4,3.8,1.4,27.7,5.1c15.3,2.5,24.7,5.1,31.8,8.9
				c13.3,6.9,18.2,17.3,14.5,31.6c-3,11.6-10.6,21.5-22.1,28.4c-14.4,8.7-34.1,13.2-58.6,13.2c-17.9,0-34.8-2.8-44.9-7.6
				c-9.4-4.4-15.5-11-17.6-19.8c-1.1-3.7-1.3-7.3-0.9-14.4L1883.6,355.2z"/>
			<path class="st0" d="M2128.7,313.2c-0.4-14.1-9.7-21.1-27.8-21.1c-25.7,0-44.4,14.9-51,40.4c-6.5,25.2,5.1,40.6,31.1,40.6
				c11.5,0,22.4-3.6,30-9.7c4.6-3.8,6.8-6.8,9.8-13.3l42.5,4.8c-7.4,13.2-14,20.7-24.8,28.3c-15.8,10.9-37.8,16.8-63.2,16.8
				c-25.6,0-45.7-5.9-57.8-17c-12.5-11.6-16.7-29.7-11.3-50.4c5.4-21,18.8-38.8,38.6-50.9c17.2-10.4,39.9-16.1,64.4-16.1
				c27.1,0,46.6,6.8,56.8,20.3c5.1,6.3,7.2,12.1,7.5,21.2L2128.7,313.2z"/>
			<path class="st0" d="M2363.3,268.3c-2.9,6.3-4.7,12.1-7.6,22.9l-21.4,82.9c-2.6,10.1-3.6,15.3-4.3,22.9H2285
				c2.9-6.5,4.8-12.2,7.6-22.9l7.7-30h-70.8l-7.8,30c-2.6,10.1-3.7,15.9-4.2,22.9h-45.2c2.9-6.3,4.8-12.1,7.7-22.9l21.4-82.9
				c2.8-10.7,3.8-16.2,4.2-22.9h45.2c-3.1,7.3-5.1,13.3-7.6,22.9l-6.6,25.7h70.8l6.6-25.7c2.8-10.7,4-16.9,4.2-22.9H2363.3z"/>
		</g>
	</g>
	<g>
		<g>
			<path class="st0" d="M741.5,188.9c-4.1,16.1-5.5,22.2-5.8,29.7h-49.6c3.6-7.5,5.8-14.3,9.6-29.1l22.8-88.2
				c2.9-11.3,3.9-16.8,4.5-24.9c9.4,0.3,15.8,0.5,33.6,0.5h66.6c20.3,0,27.9-0.2,39-1.2l-8.4,32.4c-9.9-0.9-18.8-1.2-38.2-1.2h-53
				l-7.2,27.9h43.3c18,0,26.8-0.3,37.2-1.1l-8.1,31.5c-10-0.8-19.1-1.2-36.6-1.2H748L741.5,188.9z"/>
			<path class="st0" d="M932.2,76.9c-3.2,7-5.2,12.7-8.4,25.2l-23.6,91.3c-3,11.7-4.2,18-4.6,25.2h-50.7c3.1-6.7,5.4-13.8,8.3-25.2
				l23.6-91.3c3.3-12.7,4.1-17.7,4.7-25.2H932.2z"/>
			<path class="st0" d="M958.3,218.5c-15.9,0-25.4,0.2-34.3,0.5c2.9-5.9,5.3-13.5,8.2-24.8l23.2-89.9c3.1-11.9,4.5-19.2,5.2-27.4
				h50.2c-3.9,8.8-5.4,13.6-8.8,26.9l-21.8,84.4h55.8c19.6,0,27.5-0.1,38.6-1.2l-8.4,32.7c-8.3-0.9-19.5-1.2-38-1.2H958.3z"/>
			<path class="st0" d="M1166.8,192.9c-2.7,10.2-4.1,17.7-4.8,25.7h-51c3.4-8,5.7-15,8.5-25.7l22.1-85.8h-27.2
				c-14.5,0-18.5,0.1-35.1,1.1l8.4-32.5c7.4,0.7,20,1.2,34,1.2h101c16.2,0,25.4-0.3,36.3-1.2l-8.4,32.5c-10.1-0.8-19-1.1-35.7-1.1
				h-26L1166.8,192.9z"/>
			<path class="st0" d="M1356.5,218.5c0-5.5-1-12.5-4.5-26.5c-3.5-14.8-5.3-18.7-10.1-22.5c-4-3.2-9.4-4.6-16.8-4.6h-23.5l-7.2,27.9
				c-3,11.6-4.1,17.8-4.8,25.7h-49.6c3.4-7.9,5.2-13,8.4-25.5l23.6-91.6c2.7-10.5,3.9-16.8,4.6-25c10.1,0.3,18.6,0.5,34.2,0.5h59.9
				c37.3,0,55.4,14.3,49,38.8c-3.1,12.1-10.2,21.7-20.8,28c-6.7,3.9-12.1,5.8-24.1,8.5c11.1,2.7,15.4,6.7,19.6,18.8
				c2.1,5.4,3.8,11.2,9.4,29.6c1.3,4.7,3,9.1,6.4,18.1H1356.5z M1345.1,135.8c13.6,0,23.5-6.2,26-15.9c2.4-9.5-3.6-14.4-18-14.4
				H1317l-7.8,30.3H1345.1z"/>
			<path class="st0" d="M1628.4,147.1c-11.6,44.9-56.4,74.7-112.4,74.7c-56.5,0-85.4-29.1-73.7-74.2c11.6-44.9,55.4-73.7,112.1-73.7
				C1611.1,73.8,1639.9,102.4,1628.4,147.1z M1580.4,147.4c7.1-27.6-5.7-44.3-33.6-44.3c-28.2,0-49.8,16.8-56.8,44.3
				c-7.2,27.8,5.7,45,33.8,45C1551.8,192.4,1573.2,175.3,1580.4,147.4z"/>
			<path class="st0" d="M1687.3,172.4c-0.7,6.1,0.2,9.2,2.7,12.6c4.2,5.1,13.2,8,24.9,8c17.8,0,29.8-5.8,32.3-15.3
				c1.3-5.3-1.1-9.9-6.6-11.9c-4.4-1.7-9.9-2.9-32.8-7c-20.3-3.4-27.1-5.5-34.5-9.9c-12.6-7.5-17.5-18.9-13.9-32.7
				c6.7-26.2,39.6-42.7,85.1-42.7c29.2,0,49.9,6.6,59.1,19.4c4.3,5.6,5.8,10.7,6.3,20.4l-49.9,4c0.1-11.1-7-15.7-24.5-15.7
				c-14.1,0-25.9,5.7-27.9,13.5c-1.2,4.8,1.3,8.3,8,10.9c4.2,1.5,4.2,1.5,30.4,5.6c16.8,2.7,27.2,5.6,34.9,9.7
				c14.6,7.6,20,19.1,15.9,34.7c-3.3,12.7-11.7,23.6-24.2,31.3c-15.8,9.5-37.4,14.5-64.4,14.5c-19.6,0-38.1-3-49.3-8.3
				c-10.3-4.7-17-12.1-19.3-21.8c-1.3-4.1-1.4-8-1-15.9L1687.3,172.4z"/>
		</g>
	</g>
	<g>
		<path class="st0" d="M379.4,302.9l33.3-129.1h-79.2l-33.3,129.1c-3.2,12.5-16,22.6-28.5,22.6c-12.5,0-20-10.2-16.8-22.6
			l33.3-129.1h-1.7H209h-1.7l-33.3,129.1c-3.2,12.5-16,22.6-28.5,22.6c-12.5,0-20-10.2-16.8-22.6l58.3-226h-79.2l-58.3,226
			C35.1,359,69,404.7,125.1,404.7c23.8,0,47.9-8.3,68.8-22c13.8,13.8,33.6,22,57.4,22C307.5,404.7,364.9,359,379.4,302.9z"/>
		<path class="st0" d="M647.4,177.7c14.5-56.1-19.4-101.9-75.6-101.9H205.4L185,155.1h366.4c12.5,0,20,10.2,16.8,22.6
			c-3.2,12.5-16,22.6-28.5,22.6H424.5L404,279.6h1l-0.4,1.7h114.3c12.5,0,20,10.2,16.8,22.6c-3.2,12.5-16,22.6-28.5,22.6H388.2
			c-14.7,35-45,64.4-79.8,79.2h178.2c56.2,0,113.7-45.7,128.1-101.9c6.2-23.8,3.5-45.7-5.8-63.1
			C627.3,223.4,641.2,201.6,647.4,177.7z"/>
	</g>
</g>
</svg>
