<?xml version="1.0" encoding="UTF-8" standalone="no"?>
<!-- Generator: Adobe Illustrator 22.1.0, SVG Export Plug-In . SVG Version: 6.00 Build 0)  -->

<svg
   version="1.1"
   id="Layer_1"
   x="0px"
   y="0px"
   viewBox="0 0 463.20002 363.6"
   xml:space="preserve"
   width="463.20001"
   height="363.60001"
   xmlns="http://www.w3.org/2000/svg"
   xmlns:svg="http://www.w3.org/2000/svg"><defs
   id="defs32" />
<style
   type="text/css"
   id="style1">
	.st0{fill:#CCCCCC;}
</style>
<path
   class="st0"
   d="m 159.7,62.9 c 0.7,1.9 1.1,3.1 1.5,3.5 0.3,0.4 0.7,0.5 1.3,0.3 0.6,-0.2 0.9,-0.6 0.9,-1.2 0,-0.6 -0.4,-1.8 -1.1,-3.8 L 156.9,46.5 C 156.4,45 156,44 155.6,43.6 c -0.3,-0.4 -0.8,-0.4 -1.3,-0.3 -0.5,0.2 -0.7,0.4 -0.8,0.9 -0.1,0.4 0.1,1.5 0.7,3.2 z"
   id="path1" />
<path
   class="st0"
   d="m 105.9,147 c 11.3,-30.6 37.2,-55.2 71.5,-63.5 34.2,-8.3 68.6,1.7 92.8,23.8 l 86.9,-21 -23.9,-4.7 0.6,-25.3 -24.4,0.3 L 304.7,31.7 280.9,37 271.1,13.6 248.9,23.8 234.2,2.9 214.6,17.4 196,0 179.9,18.2 158.1,5.1 l -11.9,21.2 -24.1,-8.4 -7.2,23.2 -25.3,-3.2 -2.3,24.2 -25.4,2.1 2.9,24.1 -24.4,7.3 7.8,23 -22.4,12.2 12.5,20.8 -19.3,16.5 z m 177.5,-95.5 6.9,4.8 c -2.8,6.4 -4.8,10.6 -6,12.6 2.5,-2.8 5.8,-6.1 9.9,-9.9 l 6.9,4.7 -18.2,14.7 -7.2,10.4 -7,-4.8 7.2,-10.5 z m -23.1,-11.2 18.1,8.4 -3,6.4 -4.9,-2.3 -11.8,25.4 -8.2,-3.8 11.8,-25.4 -4.9,-2.3 z M 255,38.6 244.4,72 235.7,69.2 246.3,35.8 Z m -28.2,-7 9,1.7 -5.4,27.5 5.5,1.1 -1.4,6.9 -14.4,-2.8 z m -24,-1.8 13.1,0.5 3.8,35.2 -9.3,-0.4 -0.2,-6.3 -3.3,-0.1 -0.8,6.3 -9.4,-0.4 z m -22.7,1.9 3.7,26 c 0.2,1.5 0.5,2.5 0.7,2.9 0.2,0.4 0.6,0.5 1.1,0.5 0.6,-0.1 0.9,-0.3 1,-0.8 0.1,-0.5 0,-1.6 -0.2,-3.3 l -3.7,-25.6 9,-1.3 3.3,23.2 c 0.4,2.6 0.6,4.5 0.5,5.6 0,1.1 -0.4,2.3 -1.1,3.5 -0.7,1.2 -1.7,2.2 -2.9,3 -1.3,0.8 -2.9,1.3 -4.7,1.6 -2.1,0.3 -3.9,0.2 -5.6,-0.3 -1.7,-0.5 -3,-1.2 -3.9,-2.2 -0.9,-1 -1.6,-2.1 -1.9,-3.3 -0.3,-1.2 -0.8,-3.8 -1.3,-7.7 l -3,-20.5 z m -34.5,12 c 0.5,-1.3 1.2,-2.5 2.4,-3.5 1.1,-1 2.5,-1.8 4.1,-2.3 1.9,-0.7 3.7,-1 5.5,-0.8 1.8,0.1 3.2,0.6 4.3,1.3 1.1,0.7 2,1.6 2.6,2.6 0.6,1 1.3,2.6 2,4.7 l 3.8,10.8 c 1,2.9 1.6,5 1.6,6.1 0.1,1.1 -0.1,2.2 -0.8,3.1 -0.6,0.9 -1.5,1.7 -2.7,2.6 0.3,0.7 0.6,1.1 0.9,1.3 0.3,0.1 1,0 2,-0.4 l 3,-1.1 1.4,4 -6.5,2.3 c -1.6,0.5 -2.7,0.8 -3.4,0.8 -0.7,0 -1.3,-0.2 -1.7,-0.6 -0.4,-0.4 -0.8,-1.2 -1.3,-2.4 -2,0.6 -3.8,0.7 -5.6,0.2 -1.7,-0.5 -3.1,-1.4 -4.1,-2.7 -1,-1.3 -2,-3.5 -3,-6.4 l -3.6,-10.2 c -0.8,-2.3 -1.3,-4 -1.4,-5.3 -0.1,-1.5 0,-2.8 0.5,-4.1 z m -28.7,12.4 6.8,10.5 2.3,-1.5 -6.9,-10.5 7.6,-5 19.2,29.4 -7.6,5 -8,-12.3 -2.3,1.5 8,12.3 -7.6,5 -19.2,-29.4 z M 90.6,79.5 c 0.4,-2.1 1.5,-4.1 3.4,-6 1.9,-1.9 3.9,-3 5.9,-3.4 2,-0.5 3.8,-0.3 5.2,0.4 1.4,0.7 3.2,2.1 5.2,4.2 l 1.1,1.1 -6.5,6.4 -2.2,-2.3 c -1.4,-1.5 -2.3,-2.3 -2.8,-2.5 -0.5,-0.2 -0.9,-0.1 -1.4,0.3 -0.4,0.4 -0.5,0.8 -0.4,1.3 0.2,0.4 0.8,1.3 2.1,2.6 l 11.7,12.1 c 1.1,1.1 1.9,1.8 2.4,2 0.5,0.2 1,0.1 1.4,-0.3 0.5,-0.5 0.6,-1 0.4,-1.5 -0.2,-0.6 -0.9,-1.5 -2.1,-2.6 l -2.9,-3 -1.3,1.3 -3.7,-3.8 7.7,-7.4 13.1,13.5 -4.1,4 -2.4,-1.2 c 0.3,1.2 0.3,2.3 0,3.4 -0.3,1.1 -0.9,2 -1.8,2.9 -1.1,1.1 -2.4,1.8 -3.9,2.2 -1.5,0.4 -2.8,0.4 -4.1,0.1 -1.2,-0.3 -2.4,-0.8 -3.3,-1.6 -0.9,-0.7 -2.3,-2 -3.9,-3.7 l -7.2,-7.5 c -2.3,-2.4 -3.9,-4.3 -4.7,-5.6 -1,-1.5 -1.2,-3.2 -0.9,-5.4 z m -8,7.6 27.7,21.4 -5.6,7.2 L 77,94.3 Z m -17.6,23.6 11,6.2 1.4,-2.4 -11,-6.1 4.5,-7.9 30.7,17.2 -4.5,7.9 -12.9,-7.3 -1.4,2.4 12.9,7.2 -4.5,7.9 -30.7,-17.2 z"
   id="path2" />
<path
   class="st0"
   d="m 209.4,37.9 c -1.2,6.7 -2,11.6 -2.3,14.6 l 3.1,0.1 c -0.2,-3.9 -0.5,-8.9 -0.8,-14.7 z"
   id="path3" />
<path
   class="st0"
   d="m 209.2,305.9 c 0,-1.1 -0.3,-1.8 -0.7,-2.1 -0.4,-0.3 -1.1,-0.5 -2.1,-0.5 l 0.3,7.7 c 1,0 1.6,-0.2 2,-0.5 0.4,-0.3 0.5,-1.2 0.5,-2.7 z"
   id="path4" />
<path
   class="st0"
   d="M 317.3,259 306,251.7 c -1.3,-0.8 -2.2,-1.4 -2.6,-1.5 -0.4,-0.1 -0.8,-0.1 -1.2,0 -0.4,0.2 -0.8,0.7 -1.3,1.4 l 19.1,12.3 c 0.7,-1 0.9,-1.8 0.6,-2.3 -0.2,-0.5 -1.3,-1.4 -3.3,-2.6 z"
   id="path5" />
<path
   class="st0"
   d="m 297.2,216.5 c -11.3,30.6 -37,55.2 -71.1,63.5 -34,8.3 -68.3,-1.7 -92.3,-23.8 l -86.4,21 23.8,4.8 -0.6,25.3 24.3,-0.3 4.7,24.9 23.7,-5.3 9.8,23.4 22.1,-10.1 14.4,20.8 19.5,-14.5 18.4,17.4 16,-18.3 21.7,13.2 11.9,-21.2 23.9,8.4 7.2,-23.2 25.1,3.2 2.2,-24.2 25.3,-2.1 -2.8,-24.1 24.3,-7.3 -7.8,-23 22.2,-12.2 -12.4,-20.9 19.2,-16.6 z m -153.9,104.1 -4.8,-2.3 0.3,-2.6 c -1,0.7 -2,1.1 -3,1.2 -1,0.1 -2.1,-0.1 -3.2,-0.6 -1.3,-0.6 -2.4,-1.5 -3.2,-2.7 -0.8,-1.2 -1.3,-2.5 -1.4,-3.7 -0.1,-1.3 0,-2.5 0.4,-3.6 0.4,-1.1 1.1,-2.8 2.1,-4.9 l 4.4,-9.3 c 1.4,-3 2.6,-5.1 3.6,-6.3 0.9,-1.2 2.5,-2 4.4,-2.4 2,-0.4 4.1,-0.1 6.4,1 2.3,1.1 3.9,2.5 4.9,4.2 1,1.7 1.4,3.3 1.3,4.9 -0.2,1.6 -0.9,3.6 -2.1,6.2 l -0.6,1.3 -7.7,-3.7 1.4,-2.8 c 0.8,-1.8 1.3,-2.9 1.4,-3.4 0.1,-0.5 -0.2,-0.9 -0.7,-1.2 -0.5,-0.2 -0.9,-0.2 -1.3,0.1 -0.4,0.3 -0.9,1.2 -1.6,2.8 l -7.2,15 c -0.7,1.4 -1,2.4 -1.1,2.9 0,0.5 0.2,0.9 0.7,1.2 0.5,0.3 1,0.2 1.5,-0.2 0.4,-0.4 1,-1.3 1.7,-2.8 l 1.8,-3.7 -1.6,-0.7 2.3,-4.7 9.1,4.3 z m 26.4,2.1 c -0.5,1 -1.2,1.9 -2.3,2.7 -1.1,0.9 -2.3,1.4 -3.8,1.6 -1.4,0.2 -3,0 -4.7,-0.5 -1.9,-0.6 -3.5,-1.3 -4.7,-2.4 -1.3,-1.1 -2.1,-2.2 -2.5,-3.5 -0.4,-1.3 -0.5,-2.5 -0.3,-3.7 0.2,-1.2 0.9,-3.7 2,-7.4 l 5.7,-19.6 8.2,2.4 -7.3,24.9 c -0.4,1.5 -0.6,2.4 -0.6,2.8 0,0.5 0.3,0.7 0.7,0.9 0.5,0.1 0.9,0 1.2,-0.4 0.3,-0.4 0.7,-1.4 1.1,-3.1 l 7.1,-24.5 8.2,2.4 -6.5,22.2 c -0.5,2.5 -1.1,4.2 -1.5,5.2 z m 15.9,8.4 0.3,-6.2 -3,-0.4 -1.3,6.1 -8.8,-1.1 8.6,-33.8 12.3,1.5 0.5,34.9 z m 24.6,0.8 -0.4,-11.5 c -0.1,-1.9 -0.2,-3 -0.5,-3.4 -0.3,-0.4 -1,-0.6 -2.2,-0.6 l 0.6,15.6 -8.5,0.3 -1.3,-34.6 6.1,-0.2 c 4,-0.2 6.8,-0.1 8.2,0.2 1.4,0.2 2.6,1.1 3.6,2.4 0.9,1.3 1.5,3.5 1.6,6.4 0.1,2.7 -0.2,4.5 -0.8,5.5 -0.6,0.9 -1.8,1.5 -3.7,1.8 1.7,0.4 2.9,0.9 3.5,1.7 0.6,0.7 1,1.4 1.2,2 0.1,0.6 0.3,2.3 0.4,5.1 l 0.3,9.1 z m 25.3,-3.4 -1.7,-6 -3,0.6 0.7,6.2 -8.7,1.8 -2.7,-34.8 12.1,-2.5 11.7,32.9 z m 56,-25.3 -21.4,-25.8 3.1,5.2 -4.4,2.6 14.3,23.7 -7.3,4.4 -14.3,-23.7 -4.3,2.6 -2.4,-3.9 11.7,30.1 -7,2.7 -9.9,-13 5.7,14.6 -6.7,2.6 -12.4,-32.3 6.7,-2.6 10.1,12.8 -5.7,-14.5 6.3,-2.4 v 0 l 15.9,-9.5 -0.1,-0.1 11,-9.1 4.4,5.3 -4.4,3.6 4.2,5.1 4.1,-3.4 4.2,5.1 -4.1,3.4 4.8,5.9 4.8,-4 4.4,5.3 z m 15.3,-13.3 -25.6,-23.2 9.6,-10.6 5.1,4.6 -3.8,4.2 4.9,4.4 3.6,-4 4.9,4.4 -3.6,4 5.7,5.1 4.2,-4.6 5.1,4.6 z m 21.7,-28.7 c -0.4,1 -1.1,2.4 -2.2,4.1 l -5.8,9.1 -29.1,-18.7 3.5,-5.4 c 2.2,-3.5 3.9,-5.7 5,-6.8 1.1,-1 2.3,-1.6 3.4,-1.7 1.2,-0.2 2.3,0 3.3,0.4 1.1,0.5 2.9,1.5 5.7,3.3 l 10.2,6.5 c 2.6,1.7 4.3,3 5,3.7 0.7,0.8 1.2,1.7 1.3,2.6 0.1,1 0,1.9 -0.3,2.9 z"
   id="path6" />
<path
   class="st0"
   d="m 229.5,317.1 2.9,-0.6 c -1.2,-3.7 -2.6,-8.4 -4.2,-14 0.4,6.7 0.9,11.6 1.3,14.6 z"
   id="path7" />
<path
   class="st0"
   d="m 186.4,318.8 c 0,-4 0.2,-8.8 0.5,-14.6 -1.7,6.5 -2.8,11.2 -3.4,14.2 z"
   id="path8" />
<path
   class="st0"
   d="m 92.7,165.7 -6.6,1.6 c -1.9,0.4 -3,0.7 -4.4,1 -0.1,0 -0.2,0.1 -0.2,0.2 -0.1,1.4 -0.3,2.8 -0.7,4.7 l -3.3,17.6 c -0.4,2.1 -0.7,3.5 -1.1,4.9 0,0 0,0.1 0,0.2 0,0 0.1,0 0.2,0 l 6.5,-1.5 c 0.1,0 0.2,-0.1 0.2,-0.2 0.1,-1.5 0.3,-3 0.7,-4.9 l 0.8,-4 4.6,-1.1 h 0.1 c 5.9,-1.4 10,-5.8 11.1,-11.6 0.5,-2.8 0.2,-4.7 -1,-5.9 -1.5,-1.5 -3.7,-1.8 -6.9,-1 z m 1.1,8.4 c -0.4,2.1 -1.8,3.6 -3.8,4.1 v 0 l -4.3,1 1.3,-6.5 4.4,-1 c 1,-0.3 1.8,-0.2 2.2,0.3 0.3,0.3 0.4,1.1 0.2,2.1 z"
   id="path9" />
<path
   class="st0"
   d="m 117.7,165.5 c 1.9,-0.5 3,-0.7 4.4,-0.8 v 0 c 0.1,0 0.2,-0.1 0.2,-0.2 l 1.1,-6.1 c 0,0 0,0 0,-0.1 0,-0.1 -0.1,-0.2 -0.2,-0.1 v 0 c -1.2,0.4 -2.1,0.7 -3.8,1.1 -0.2,0.1 -0.4,0.1 -0.7,0.2 l -9.6,2.3 c -2.4,0.6 -3.2,0.7 -4.5,1 -0.1,0 -0.2,0.1 -0.2,0.2 -0.1,1.6 -0.3,2.7 -0.7,4.7 l -3.4,17.8 c -0.4,2.2 -0.7,3.4 -1.1,4.8 0,0.1 0,0.1 0,0.2 0,0 0.1,0.1 0.2,0 1.1,-0.3 1.8,-0.5 3.1,-0.8 0.4,-0.1 0.8,-0.2 1.3,-0.3 l 9.5,-2.2 c 2.7,-0.6 3.7,-0.8 4.9,-0.9 v 0 c 0.1,0 0.2,-0.1 0.2,-0.2 l 1.1,-6.1 c 0,-0.1 0,-0.1 0,-0.2 -0.1,0 -0.1,0 -0.2,0 v 0 c -1.2,0.4 -2.3,0.8 -4,1.2 -0.3,0.1 -0.6,0.1 -0.9,0.2 l -7.5,1.8 1,-5.1 6.4,-1.5 c 2.1,-0.5 3.1,-0.7 4.4,-0.9 v 0 c 0.1,0 0.2,-0.1 0.2,-0.2 l 1.1,-6 v -0.2 c 0,-0.1 -0.1,-0.2 -0.2,-0.2 v 0 c -1.6,0.6 -2.3,0.8 -3.7,1.1 -0.3,0.1 -0.5,0.1 -0.9,0.2 l -6.3,1.5 0.8,-4.4 z"
   id="path10" />
<path
   class="st0"
   d="m 128.2,183.4 c 0.1,-1.5 0.3,-2.6 0.7,-4.8 l 1,-5.2 3,-0.7 c 0.9,-0.2 1.6,-0.1 2,0.3 0.6,0.5 0.8,1.2 1.2,3.7 0.4,2.2 0.5,3.6 0.5,4.7 0,0.1 0,0.1 0,0.1 0,0 0.1,0 0.1,0 l 7.1,-1.7 c 0,0 0.1,0 0.1,-0.1 0,0 0,-0.1 0,-0.1 l -0.1,-0.4 c -0.4,-1.3 -0.6,-2 -0.7,-2.8 l -0.2,-1 c -0.5,-2.4 -0.7,-3.3 -0.9,-4.2 -0.5,-1.9 -1,-2.6 -2.1,-2.8 1.3,-0.7 1.9,-1.3 2.7,-2.1 1.5,-1.5 2.4,-3.5 2.9,-5.9 0.4,-2.3 0.1,-4 -0.9,-5 -1.1,-1.1 -3.1,-1.4 -5.6,-0.8 l -7.8,1.9 c -2.1,0.5 -3.2,0.7 -4.5,1 -0.1,0 -0.2,0.1 -0.2,0.2 -0.1,1.5 -0.3,2.7 -0.7,4.7 l -3.3,17.5 c -0.5,2.5 -0.7,3.4 -1.2,4.9 0,0 0,0.1 0,0.2 0,0 0.1,0 0.2,0 l 6.5,-1.5 c 0.1,0.1 0.2,0 0.2,-0.1 z m 3.8,-21.4 4.6,-1.1 c 0.9,-0.2 1.5,-0.1 1.9,0.2 0.3,0.3 0.4,0.9 0.2,1.7 -0.3,1.8 -1.5,3.1 -3.2,3.5 v 0 l -4.5,1 z"
   id="path11" />
<path
   class="st0"
   d="m 169.8,147.2 v 0 c -0.1,0 -0.1,0 0,0 -1.2,0.4 -2,0.7 -3.7,1.1 -0.4,0.1 -0.9,0.2 -1.4,0.4 l -8.7,2.1 c -2.3,0.5 -3.1,0.7 -4.4,1 -0.1,0 -0.2,0.1 -0.2,0.2 -0.1,1.5 -0.3,2.6 -0.7,4.7 l -3.2,16.9 c -0.6,2.9 -0.8,4.1 -1.3,5.6 0,0.1 0,0.1 0,0.2 0,0 0.1,0.1 0.2,0 l 6.5,-1.5 c 0.1,0 0.2,-0.1 0.2,-0.2 0,-1.3 0.2,-2.5 0.8,-5.6 l 0.9,-4.7 5.5,-1.3 c 2.2,-0.5 3.4,-0.8 4.7,-0.9 v 0 c 0.1,0 0.1,-0.1 0.1,-0.2 l 1.1,-6 c 0,0 0,-0.1 0,-0.1 0,-0.1 -0.1,-0.2 -0.2,-0.1 v 0 0 c -1.3,0.4 -2.3,0.7 -4,1.2 -0.3,0 -0.5,0.1 -0.8,0.2 l -5.4,1.3 0.9,-4.9 6.8,-1.6 c 2.4,-0.6 3.6,-0.8 5,-1 v 0 c 0.1,0 0.2,-0.1 0.2,-0.2 l 1.2,-6.2 c 0,0 0,-0.1 0,-0.1 0,-0.2 -0.1,-0.3 -0.1,-0.3 z"
   id="path12" />
<path
   class="st0"
   d="m 190.9,142.3 v 0 0 c -1.2,0.4 -2.2,0.7 -3.9,1.1 -0.2,0.1 -0.4,0.1 -0.7,0.2 l -9.6,2.3 c -2.4,0.6 -3.2,0.7 -4.4,0.9 v 0 c -0.1,0.1 -0.2,0.1 -0.2,0.2 -0.1,1.5 -0.3,2.7 -0.6,4.7 l -3.4,17.8 c -0.4,2.2 -0.7,3.4 -1.2,4.8 0,0.1 0,0.1 0,0.2 0,0 0.1,0 0.2,0 1.1,-0.3 1.8,-0.5 3,-0.8 0.4,-0.1 0.9,-0.2 1.5,-0.3 l 9.5,-2.3 c 2.7,-0.6 3.7,-0.8 4.9,-0.9 v 0 c 0.1,0 0.2,-0.1 0.2,-0.2 l 1.2,-6.1 c 0,-0.1 0,-0.1 -0.1,-0.2 0,0 -0.1,0 -0.1,0 v 0 c -1.2,0.4 -2.4,0.7 -4.1,1.2 -0.3,0.1 -0.6,0.1 -0.9,0.2 l -7.6,1.8 1,-5.1 6.4,-1.5 c 2.2,-0.5 3.2,-0.7 4.5,-0.8 v 0 c 0.1,0 0.2,-0.1 0.2,-0.2 l 1.1,-6 v 0 c 0,-0.1 -0.1,-0.2 -0.2,-0.2 v 0 c -1.6,0.5 -2.3,0.8 -3.6,1.1 -0.3,0.1 -0.6,0.1 -0.9,0.2 l -6.3,1.5 0.9,-4.4 7.7,-1.8 c 1.9,-0.4 3,-0.6 4.4,-0.8 v 0 c 0.1,-0.1 0.2,-0.1 0.2,-0.2 l 1.2,-6.1 c 0,0 0,0 0,-0.1 -0.2,-0.2 -0.3,-0.3 -0.3,-0.2 z"
   id="path13" />
<path
   class="st0"
   d="m 204.6,144.4 v 0 c 1.2,-0.3 2.2,-0.2 2.8,0.3 0.7,0.5 1,1.5 1,2.9 0,0.1 0,0.1 0.1,0.1 0,0 0.1,0 0.1,0 v 0 l 6.5,-2.8 c 0.1,-0.1 0.2,-0.1 0.2,-0.2 0,-1.8 -0.3,-3 -1.1,-4.1 -1.4,-2.4 -4.3,-3.2 -8.2,-2.2 h -0.2 c -3.5,0.9 -6.8,2.8 -9.3,5.5 -2.9,3.2 -4.9,7.2 -5.8,11.7 -0.9,4.4 -0.3,8 1.5,10 1.7,1.9 4.6,2.4 8.4,1.5 h 0.1 c 3.6,-0.9 6.8,-2.8 9.1,-5.6 1.6,-1.9 2.6,-3.7 3.7,-6.6 0,-0.1 0,-0.1 0,-0.2 0,0 -0.1,-0.1 -0.1,-0.1 l -6.1,0.5 v 0 c -0.1,0 -0.2,0.1 -0.2,0.2 -0.4,1.4 -0.8,2.1 -1.4,2.9 -1.1,1.5 -2.6,2.5 -4.2,2.9 v 0 c -1.5,0.3 -2.6,0.2 -3.3,-0.6 -1.1,-1.1 -1.4,-3.3 -0.8,-6.3 1,-5.4 3.6,-9 7.2,-9.8 z"
   id="path14" />
<path
   class="st0"
   d="m 230.1,138.4 v 0 c 1.2,-0.3 2.2,-0.2 2.8,0.3 0.7,0.5 1,1.5 1,2.9 0,0 0,0.1 0.1,0.1 0.1,0 0.1,0 0.1,0 v 0 l 6.5,-2.8 c 0.1,-0.1 0.1,-0.1 0.1,-0.2 0,-1.8 -0.3,-3 -1,-4.1 -1.4,-2.4 -4.3,-3.2 -8.3,-2.2 h -0.1 c -3.5,0.8 -6.8,2.8 -9.3,5.4 -2.9,3.1 -4.9,7.2 -5.8,11.7 -0.9,4.4 -0.3,8 1.5,9.9 1.7,1.9 4.6,2.4 8.4,1.5 h 0.2 c 3.6,-0.9 6.8,-2.8 9.1,-5.6 1.6,-1.9 2.6,-3.7 3.7,-6.6 0,-0.1 0,-0.1 0,-0.2 0,-0.1 -0.1,-0.1 -0.2,-0.1 l -6.1,0.5 v 0 c -0.1,0 -0.1,0.1 -0.2,0.2 -0.4,1.4 -0.8,2.1 -1.4,2.9 -1.1,1.5 -2.6,2.5 -4.2,2.9 v 0 c -1.5,0.3 -2.6,0.1 -3.4,-0.6 -1.1,-1.1 -1.4,-3.3 -0.8,-6.3 1.1,-5.2 3.7,-8.8 7.3,-9.6 z"
   id="path15" />
<path
   class="st0"
   d="m 246.9,155.3 c 0.1,-1.3 0.3,-2.5 0.7,-4.7 l 3.3,-17.5 c 0.4,-2.3 0.7,-3.4 1.2,-4.9 0,-0.1 0,-0.1 0,-0.2 0,0 -0.1,0 -0.2,0 l -6.6,1.6 c -0.1,0 -0.2,0.1 -0.2,0.2 -0.1,1.3 -0.2,2.3 -0.7,4.8 l -3.3,17.5 c -0.4,2.3 -0.7,3.6 -1.1,4.8 0,0.1 0,0.1 0,0.2 0.1,0 0.1,0.1 0.2,0 l 6.7,-1.6 c 0,0 0,-0.1 0,-0.2 z"
   id="path16" />
<path
   class="st0"
   d="m 264.8,121.6 c -0.1,0.1 -0.1,0.2 0,0.2 l 1.2,2 c 0,0 0.1,0.1 0.1,0.1 0,0 0.1,0 0.1,0 l 9.5,-6.8 c 0.1,0 0.1,-0.1 0.1,-0.1 0,0 0,-0.1 0,-0.1 l -1.9,-3.2 -1.7,0.4 z"
   id="path17" />
<path
   class="st0"
   d="m 267.2,123.9 h -0.1 c -7.4,1.8 -13.3,8.6 -14.9,17.2 -0.9,4.6 -0.3,8.1 1.8,10.1 1.8,1.7 4.5,2.2 7.9,1.4 h 0.1 c 7.3,-1.8 13.3,-8.8 15,-17.4 0.9,-4.5 0.3,-7.9 -1.7,-9.9 -1.9,-1.8 -4.6,-2.3 -8.1,-1.4 z m 3,12.9 c -1,5.2 -3.8,8.9 -7.3,9.8 v 0 c -1.4,0.3 -2.5,0.1 -3.3,-0.6 -1.1,-1.1 -1.4,-3.3 -0.8,-6.4 1,-5.1 3.8,-8.8 7.3,-9.7 h 0.1 c 1.4,-0.3 2.5,-0.1 3.3,0.6 1,1.1 1.3,3.2 0.7,6.3 z"
   id="path18" />
<path
   class="st0"
   d="m 277.1,148.4 6.4,-1.5 c 0.1,0 0.2,-0.1 0.2,-0.2 0.1,-1.3 0.3,-2.7 0.7,-5 l 1.4,-7.3 c 0.2,-1.4 0.5,-2.8 0.6,-3.9 0.4,1 0.7,1.8 1.2,2.7 l 3.8,7.8 c 0.7,1.5 1.2,2.5 1.5,3.6 0,0.1 0.1,0.1 0.2,0.1 l 6.6,-1.6 c 0.1,0 0.1,-0.1 0.2,-0.2 0.1,-1.5 0.3,-3 0.7,-4.8 l 3.3,-17.3 c 0.4,-2.2 0.7,-3.5 1.2,-5 0,-0.1 0,-0.1 0,-0.2 0,0 -0.1,-0.1 -0.2,0 l -6.4,1.5 c -0.1,0 -0.2,0.1 -0.2,0.2 -0.1,1.4 -0.3,2.7 -0.7,4.9 l -1.4,7.4 c -0.3,1.5 -0.5,2.7 -0.7,4 -0.4,-1 -0.7,-1.7 -1.2,-2.7 l -4,-7.9 c -0.8,-1.5 -1.2,-2.7 -1.3,-3.5 0,-0.1 -0.1,-0.2 -0.2,-0.1 l -6.6,1.5 c -0.1,0 -0.2,0.1 -0.2,0.2 -0.1,1.4 -0.3,2.7 -0.7,4.8 l -3.2,17.2 c -0.5,2.5 -0.8,3.9 -1.2,5.2 0,0.1 0,0.1 0,0.2 0.1,-0.1 0.2,-0.1 0.2,-0.1 z"
   id="path19" />
<path
   class="st0"
   d="m 54.4,213.4 c -2.3,-2.3 -6,-3 -10.7,-1.9 h -0.2 c -10.1,2.5 -18,11.6 -20.3,23.2 -1.2,6.2 -0.4,10.9 2.3,13.6 2.4,2.4 6.1,3 10.8,1.9 h 0.2 c 2.9,-0.7 5.2,-1.8 7.7,-3.7 2.1,2.1 2.5,2.6 3.2,3.5 0,0.1 0.1,0.1 0.2,0.1 v 0 c 0.1,0 0.2,-0.1 0.2,-0.1 l 5.6,-6.4 c 0,0 0.1,-0.2 0.1,-0.2 0,-0.1 0,-0.2 -0.1,-0.2 -0.7,-0.4 -1.3,-0.9 -2.1,-1.7 l -1,-1 c 3.5,-4.7 5.2,-8.5 6.2,-13.7 1.4,-6.1 0.5,-10.8 -2.1,-13.4 z m -6.7,15.5 c -0.5,2.7 -1.2,4.6 -2.3,6.6 -1.7,-1.7 -1.7,-1.7 -2.2,-2.4 0,-0.1 -0.1,-0.1 -0.2,-0.1 v 0 c -0.1,0 -0.2,0 -0.2,0.1 l -5.6,6 c 0,0.1 -0.1,0.2 -0.1,0.2 0,0.1 0,0.2 0.1,0.2 0.8,0.6 1.4,1.1 2.3,1.9 -0.5,0.3 -1,0.5 -1.6,0.6 v 0.2 0 -0.1 c -1.9,0.4 -3.5,0.1 -4.4,-1 -1.4,-1.5 -1.8,-4.5 -1,-8.6 1.3,-6.7 5,-11.7 9.7,-12.8 h 0.1 c 2,-0.5 3.4,-0.2 4.4,0.8 1.4,1.5 1.8,4.4 1,8.4 z"
   id="path20" />
<path
   class="st0"
   d="m 71.4,212.4 c 0.6,-3.3 1,-5 1.6,-6.7 0,-0.1 0,-0.2 -0.1,-0.3 -0.1,0 -0.1,-0.1 -0.3,0 l -8.8,2.1 c -0.2,0 -0.3,0.2 -0.3,0.4 -0.1,1.5 -0.3,3.3 -0.9,6.5 l -2.9,15 c -0.9,5 -0.5,8.6 1.5,10.8 2,2.3 5.9,2.8 11,1.6 h 0.2 c 9.8,-2.4 16.5,-9.5 18.4,-19.5 l 2.9,-15.1 c 0.6,-3.1 1,-4.8 1.5,-6.7 0,-0.1 0,-0.2 0,-0.3 0,-0.1 -0.1,-0.1 -0.3,-0.1 l -8.7,2.1 c -0.2,0 -0.3,0.2 -0.3,0.3 -0.2,1.8 -0.3,3.1 -0.9,6.5 l -2.9,15 c -1,5.4 -3.7,8.4 -8.3,9.5 l -0.1,0.1 c -2.2,0.5 -3.7,0.3 -4.5,-0.6 -1,-0.9 -1.2,-2.9 -0.7,-5.6 z"
   id="path21" />
<path
   class="st0"
   d="m 117.4,202.7 c 2.6,-0.6 4.1,-0.9 6,-1.1 v 0 c 0.1,0 0.3,-0.2 0.3,-0.3 l 1.5,-8.2 c 0,0 0,-0.1 0,-0.1 0,-0.2 -0.1,-0.3 -0.3,-0.2 v 0 c -1.6,0.6 -2.9,0.9 -5.1,1.5 -0.3,0.1 -0.6,0.1 -1,0.2 l -12.9,3.1 c -3.2,0.8 -4.3,1 -5.9,1.3 v 0 c -0.2,0 -0.3,0.2 -0.3,0.3 -0.2,2.1 -0.4,3.6 -0.9,6.3 l -4.6,24 c -0.5,3 -0.9,4.6 -1.5,6.4 0,0.1 0,0.2 0,0.3 0.1,0.1 0.1,0.1 0.3,0.1 v 0 c 1.3,-0.4 2.3,-0.6 4.1,-1.1 0.5,-0.2 1.1,-0.3 1.9,-0.5 l 12.8,-3 c 3.7,-0.9 5,-1.1 6.6,-1.3 v 0 c 0.1,0 0.3,-0.1 0.3,-0.3 l 1.5,-8.2 c 0,-0.1 0,-0.2 -0.1,-0.3 -0.1,0 -0.1,-0.1 -0.2,0 v 0 c -1.6,0.6 -3.2,1 -5.4,1.6 -0.4,0.1 -0.8,0.2 -1.2,0.3 l -10.1,2.4 1.3,-6.7 8.5,-2 c 2.9,-0.7 4.3,-0.9 6,-1.1 v 0 c 0.1,0 0.3,-0.1 0.3,-0.3 l 1.5,-8.1 c 0,-0.1 0,-0.1 0,-0.1 0,-0.2 -0.1,-0.3 -0.3,-0.2 v 0 0 c -2.1,0.7 -3.1,1 -4.9,1.5 -0.3,0.1 -0.8,0.2 -1.2,0.3 l -8.4,2 1.1,-5.8 z"
   id="path22" />
<path
   class="st0"
   d="m 172.1,194.5 c 5.1,-1.2 7.6,-1.7 10.5,-2.1 v 0 c 0.1,0 0.3,-0.1 0.3,-0.3 l 2.5,-13 V 179 c 0,-0.2 -0.2,-0.3 -0.3,-0.2 v 0 0 0 c -2.4,0.9 -4.2,1.4 -7.7,2.3 -0.9,0.2 -1.9,0.5 -3,0.7 l -18.3,4.4 c -4.9,1.1 -6.7,1.5 -9.2,2 v 0 c -0.2,0 -0.3,0.2 -0.3,0.3 -0.3,3.2 -0.6,5.5 -1.4,9.9 l -6.7,35.6 c -1.2,6 -1.8,8.8 -2.8,11.9 0,0.1 0,0.2 0,0.3 0.1,0.1 0.2,0.1 0.3,0.1 l 13.7,-3.2 c 0.2,0 0.3,-0.2 0.3,-0.4 0.1,-2.9 0.5,-5.3 1.8,-11.8 l 1.8,-9.8 11.7,-2.8 c 4.7,-1.1 7.3,-1.6 10.1,-1.9 v 0 c 0.1,0 0.2,-0.1 0.3,-0.3 l 2.4,-12.7 c 0,0 0,-0.1 0,-0.1 0,-0.1 -0.1,-0.3 -0.3,-0.2 v 0 c -2.6,0.9 -4.8,1.6 -8.3,2.4 -0.6,0.1 -1.2,0.3 -1.9,0.5 l -11.6,2.7 2,-10.6 z"
   id="path23" />
<path
   class="st0"
   d="m 179.5,235.8 14,-3.3 c 0.2,0 0.3,-0.2 0.3,-0.4 0.2,-2.7 0.5,-5.3 1.4,-10 l 7,-36.8 c 0.9,-4.9 1.5,-7.3 2.4,-10.2 0,-0.1 0,-0.2 0,-0.3 -0.1,-0.1 -0.2,-0.1 -0.3,-0.1 l -14,3.3 c -0.2,0 -0.3,0.2 -0.3,0.3 -0.2,2.9 -0.4,4.8 -1.4,10 l -7,36.9 c -0.9,4.8 -1.6,7.6 -2.4,10.2 0,0.1 0,0.2 0,0.3 0.1,0.1 0.2,0.1 0.3,0.1 z"
   id="path24" />
<path
   class="st0"
   d="m 201.3,230.8 v 0 c 2,-0.6 4.1,-1.1 6.7,-1.8 0.8,-0.2 1.7,-0.4 2.7,-0.6 l 19.3,-4.6 c 5.2,-1.2 8.2,-1.8 10.5,-2 v 0 c 0.2,0 0.3,-0.2 0.3,-0.3 l 2.5,-13.2 v -0.1 c 0,-0.2 -0.1,-0.3 -0.3,-0.3 v 0 c -2.4,0.9 -4.3,1.5 -7.8,2.3 -0.8,0.2 -1.7,0.4 -2.8,0.6 l -15,3.6 6.4,-33.7 c 1,-5.3 1.5,-7.3 2.6,-11 0,-0.1 0,-0.2 0,-0.3 -0.1,-0.1 -0.2,-0.1 -0.3,-0.1 l -13.9,3.3 c -0.1,0 -0.3,0.2 -0.3,0.3 -0.2,3.2 -0.7,6 -1.6,10.9 l -6.9,36.3 c -0.9,4.8 -1.6,7.8 -2.4,10.1 0,0.1 0,0.2 0,0.3 0.1,0.3 0.2,0.3 0.3,0.3 z"
   id="path25" />
<path
   class="st0"
   d="m 252.6,218.1 c 0,0.1 0,0.2 0,0.3 0.1,0 0.1,0.1 0.3,0 l 14,-3.3 c 0.2,0 0.3,-0.2 0.3,-0.3 0.2,-3 0.6,-5.9 1.5,-10.2 l 6.5,-34.5 6.9,-1.6 c 4.4,-1 6.9,-1.5 9.8,-1.9 v 0 c 0.1,0 0.3,-0.2 0.3,-0.3 l 2.5,-13.1 c 0,0 0,-0.1 0,-0.1 0,-0.2 -0.2,-0.3 -0.3,-0.2 v 0 0 c -2.8,0.9 -5.1,1.6 -8.5,2.4 -0.5,0.1 -1,0.2 -1.5,0.4 l -27.9,6.6 c -3.6,0.8 -7.1,1.5 -9.3,1.7 v 0 c -0.1,0 -0.3,0.1 -0.3,0.3 l -2.5,13.1 c 0,0.1 0,0.2 0.1,0.3 0,0 0.2,0.1 0.2,0 v 0 c 3.7,-1.2 5.2,-1.7 7.9,-2.3 0.5,-0.1 1.1,-0.3 1.7,-0.4 l 7.1,-1.7 -6.5,34.2 c -0.7,4.5 -1.4,7.4 -2.3,10.6 z"
   id="path26" />
<path
   class="st0"
   d="m 338.9,158.2 c 0.9,-4.8 0.3,-8.4 -1.9,-10.5 -2.3,-2.3 -6.4,-2.9 -11.7,-1.6 l -16.5,3.9 c -4.4,1 -6.7,1.5 -9.4,2 -0.2,0.1 -0.3,0.2 -0.3,0.3 -0.2,3.2 -0.6,5.7 -1.4,10 l -7,37 c -1,5.1 -1.5,7.2 -2.5,10.4 0,0.1 0,0.2 0,0.3 0.1,0.1 0.2,0.1 0.3,0.1 l 13.7,-3.2 c 0.2,0 0.3,-0.2 0.3,-0.4 0.2,-3.1 0.6,-5.6 1.5,-10.2 l 2.1,-11 6.3,-1.5 c 2,-0.5 3.4,-0.3 4.4,0.6 1.2,1.1 1.7,2.5 2.6,7.9 0.8,4.8 1.1,7.7 1.1,10 0,0.1 0,0.2 0.1,0.2 0.1,0 0.1,0 0.2,0 l 14.9,-3.5 c 0.1,0 0.2,-0.1 0.2,-0.2 0.1,-0.1 0.1,-0.2 0.1,-0.3 l -0.3,-0.8 c -0.8,-2.7 -1.1,-4.1 -1.4,-5.7 l -0.2,-1.1 c -1.3,-5.9 -1.7,-7.9 -2.2,-9.8 -1,-4 -2.1,-5.5 -4.7,-6 2.8,-1.6 4.2,-2.7 6,-4.5 2.7,-3.2 4.7,-7.5 5.7,-12.4 z m -14.1,4.8 c -0.7,3.7 -3.3,6.6 -6.9,7.5 h -0.1 l -9.5,2.3 2.2,-11.6 9.7,-2.3 c 1.9,-0.4 3.3,-0.3 4,0.4 0.7,0.7 0.9,2 0.6,3.7 z"
   id="path27" />
<path
   class="st0"
   d="m 376.5,189.1 c 0.1,0.1 0.2,0.1 0.3,0.1 l 14.9,-3.5 c 0.1,0 0.2,-0.1 0.2,-0.2 0.1,-0.1 0.1,-0.2 0.1,-0.3 -0.5,-1.7 -0.9,-4.2 -1.5,-7.6 l -5.9,-38.1 c -0.6,-3.4 -0.7,-5.1 -0.8,-6.9 0,-0.1 0,-0.2 -0.1,-0.2 -0.1,-0.1 -0.1,-0.1 -0.2,-0.1 l -16.6,3.9 c -0.1,0 -0.3,0.1 -0.3,0.3 -0.7,2 -1.6,4.1 -3.4,7.8 l -21.6,44.6 c -2.4,5.1 -3.3,6.9 -4.6,9.1 -0.1,0.1 -0.1,0.2 0,0.4 0.1,0.1 0.2,0.1 0.3,0.1 l 14.9,-3.5 c 0.1,0 0.3,-0.1 0.3,-0.3 0.8,-2.6 1.7,-4.9 3,-7.8 l 2.7,-6 17.7,-4.2 0.6,5.2 c 0.2,2 0.2,3.7 0.1,7 -0.2,0 -0.1,0.1 -0.1,0.2 z m -12.8,-21.2 9.1,-20.4 2,17.8 z"
   id="path28" />
<path
   class="st0"
   d="m 273.2,113 c 0,0 0.1,-0.1 0.1,-0.1 v 0 c 0,0 0.1,0.1 0.2,0.1 l 0.4,0.6 L 406,80.9 410.8,74.5 0,181.3 272.2,114 Z"
   id="path29" />
<path
   class="st0"
   d="m 273.3,112.9 v 0 c -0.1,0 -0.1,0.1 -0.1,0.1 l -1,1 1.7,-0.4 -0.4,-0.6 c -0.1,-0.1 -0.1,-0.1 -0.2,-0.1 z"
   id="path30" />
<polygon
   class="st0"
   points="512.2,408.4 517,402 73.5,506.9 "
   id="polygon30"
   transform="translate(-53.8,-229.9)" />
<path
   class="st0"
   d="m 208.8,310.5 c -0.4,0.3 -1,0.5 -2,0.5 l -0.3,-7.7 c 1,-0.1 1.7,0.1 2.1,0.5 0.4,0.3 0.6,1 0.7,2.1 l 0.1,1.9 c -0.1,1.5 -0.2,2.4 -0.6,2.7 z"
   id="path31" />
<polygon
   class="st0"
   points="308.6,518.1 307.8,516 307.4,516.1 "
   id="polygon31"
   transform="translate(-53.8,-229.9)" />
<polygon
   class="st0"
   points="323.9,507.3 323.5,506.5 323.4,506.6 "
   id="polygon32"
   transform="translate(-53.8,-229.9)" />
<path
   class="st0"
   d="M 320.1,264 301,251.7 c 0.5,-0.8 0.9,-1.3 1.3,-1.4 0.3,-0.2 0.7,-0.2 1.2,0 0.4,0.2 1.3,0.7 2.6,1.5 l 11.3,7.3 c 1.9,1.2 3,2.1 3.3,2.6 0.3,0.4 0.1,1.2 -0.6,2.3 z"
   id="path32" />
</svg>
