<?xml version="1.0" encoding="utf-8"?>
<!-- Generator: Adobe Illustrator 22.1.0, SVG Export Plug-In . SVG Version: 6.00 Build 0)  -->
<svg version="1.1" id="Layer_1" xmlns="http://www.w3.org/2000/svg" xmlns:xlink="http://www.w3.org/1999/xlink" x="0px" y="0px"
	 viewBox="0 0 595.3 841.9" style="enable-background:new 0 0 595.3 841.9;" xml:space="preserve">
<style type="text/css">
	.st0{fill:#CCCCCC;}
</style>
<path class="st0" d="M213.5,292.8c0.7,1.9,1.1,3.1,1.5,3.5c0.3,0.4,0.7,0.5,1.3,0.3c0.6-0.2,0.9-0.6,0.9-1.2c0-0.6-0.4-1.8-1.1-3.8
	l-5.4-15.2c-0.5-1.5-0.9-2.5-1.3-2.9c-0.3-0.4-0.8-0.4-1.3-0.3c-0.5,0.2-0.7,0.4-0.8,0.9c-0.1,0.4,0.1,1.5,0.7,3.2L213.5,292.8z"/>
<path class="st0" d="M159.7,376.9c11.3-30.6,37.2-55.2,71.5-63.5c34.2-8.3,68.6,1.7,92.8,23.8l86.9-21l-23.9-4.7l0.6-25.3l-24.4,0.3
	l-4.7-24.9l-23.8,5.3l-9.8-23.4l-22.2,10.2L288,232.8l-19.6,14.5l-18.6-17.4l-16.1,18.2L211.9,235L200,256.2l-24.1-8.4l-7.2,23.2
	l-25.3-3.2l-2.3,24.2l-25.4,2.1l2.9,24.1l-24.4,7.3l7.8,23l-22.4,12.2l12.5,20.8l-19.3,16.5L159.7,376.9z M337.2,281.4l6.9,4.8
	c-2.8,6.4-4.8,10.6-6,12.6c2.5-2.8,5.8-6.1,9.9-9.9l6.9,4.7l-18.2,14.7l-7.2,10.4l-7-4.8l7.2-10.5L337.2,281.4z M314.1,270.2
	l18.1,8.4l-3,6.4l-4.9-2.3l-11.8,25.4l-8.2-3.8l11.8-25.4l-4.9-2.3L314.1,270.2z M308.8,268.5l-10.6,33.4l-8.7-2.8l10.6-33.4
	L308.8,268.5z M280.6,261.5l9,1.7l-5.4,27.5l5.5,1.1l-1.4,6.9l-14.4-2.8L280.6,261.5z M256.6,259.7l13.1,0.5l3.8,35.2l-9.3-0.4
	l-0.2-6.3l-3.3-0.1l-0.8,6.3l-9.4-0.4L256.6,259.7z M233.9,261.6l3.7,26c0.2,1.5,0.5,2.5,0.7,2.9c0.2,0.4,0.6,0.5,1.1,0.5
	c0.6-0.1,0.9-0.3,1-0.8c0.1-0.5,0-1.6-0.2-3.3l-3.7-25.6l9-1.3l3.3,23.2c0.4,2.6,0.6,4.5,0.5,5.6c0,1.1-0.4,2.3-1.1,3.5
	c-0.7,1.2-1.7,2.2-2.9,3c-1.3,0.8-2.9,1.3-4.7,1.6c-2.1,0.3-3.9,0.2-5.6-0.3c-1.7-0.5-3-1.2-3.9-2.2c-0.9-1-1.6-2.1-1.9-3.3
	c-0.3-1.2-0.8-3.8-1.3-7.7l-3-20.5L233.9,261.6z M199.4,273.6c0.5-1.3,1.2-2.5,2.4-3.5c1.1-1,2.5-1.8,4.1-2.3c1.9-0.7,3.7-1,5.5-0.8
	c1.8,0.1,3.2,0.6,4.3,1.3c1.1,0.7,2,1.6,2.6,2.6c0.6,1,1.3,2.6,2,4.7l3.8,10.8c1,2.9,1.6,5,1.6,6.1c0.1,1.1-0.1,2.2-0.8,3.1
	c-0.6,0.9-1.5,1.7-2.7,2.6c0.3,0.7,0.6,1.1,0.9,1.3c0.3,0.1,1,0,2-0.4l3-1.1l1.4,4l-6.5,2.3c-1.6,0.5-2.7,0.8-3.4,0.8
	c-0.7,0-1.3-0.2-1.7-0.6c-0.4-0.4-0.8-1.2-1.3-2.4c-2,0.6-3.8,0.7-5.6,0.2c-1.7-0.5-3.1-1.4-4.1-2.7c-1-1.3-2-3.5-3-6.4l-3.6-10.2
	c-0.8-2.3-1.3-4-1.4-5.3C198.8,276.2,198.9,274.9,199.4,273.6z M170.7,286l6.8,10.5l2.3-1.5l-6.9-10.5l7.6-5l19.2,29.4l-7.6,5
	l-8-12.3l-2.3,1.5l8,12.3l-7.6,5L163,291L170.7,286z M144.4,309.4c0.4-2.1,1.5-4.1,3.4-6c1.9-1.9,3.9-3,5.9-3.4
	c2-0.5,3.8-0.3,5.2,0.4c1.4,0.7,3.2,2.1,5.2,4.2l1.1,1.1l-6.5,6.4l-2.2-2.3c-1.4-1.5-2.3-2.3-2.8-2.5c-0.5-0.2-0.9-0.1-1.4,0.3
	c-0.4,0.4-0.5,0.8-0.4,1.3c0.2,0.4,0.8,1.3,2.1,2.6l11.7,12.1c1.1,1.1,1.9,1.8,2.4,2c0.5,0.2,1,0.1,1.4-0.3c0.5-0.5,0.6-1,0.4-1.5
	c-0.2-0.6-0.9-1.5-2.1-2.6l-2.9-3l-1.3,1.3l-3.7-3.8l7.7-7.4l13.1,13.5l-4.1,4l-2.4-1.2c0.3,1.2,0.3,2.3,0,3.4
	c-0.3,1.1-0.9,2-1.8,2.9c-1.1,1.1-2.4,1.8-3.9,2.2c-1.5,0.4-2.8,0.4-4.1,0.1c-1.2-0.3-2.4-0.8-3.3-1.6c-0.9-0.7-2.3-2-3.9-3.7
	l-7.2-7.5c-2.3-2.4-3.9-4.3-4.7-5.6C144.3,313.3,144.1,311.6,144.4,309.4z M136.4,317l27.7,21.4l-5.6,7.2l-27.7-21.4L136.4,317z
	 M118.8,340.6l11,6.2l1.4-2.4l-11-6.1l4.5-7.9l30.7,17.2l-4.5,7.9l-12.9-7.3l-1.4,2.4l12.9,7.2l-4.5,7.9l-30.7-17.2L118.8,340.6z"/>
<path class="st0" d="M263.2,267.8c-1.2,6.7-2,11.6-2.3,14.6l3.1,0.1C263.8,278.6,263.5,273.6,263.2,267.8z"/>
<path class="st0" d="M263,535.8c0-1.1-0.3-1.8-0.7-2.1c-0.4-0.3-1.1-0.5-2.1-0.5l0.3,7.7c1,0,1.6-0.2,2-0.5c0.4-0.3,0.5-1.2,0.5-2.7
	L263,535.8z"/>
<path class="st0" d="M371.1,488.9l-11.3-7.3c-1.3-0.8-2.2-1.4-2.6-1.5c-0.4-0.1-0.8-0.1-1.2,0c-0.4,0.2-0.8,0.7-1.3,1.4l19.1,12.3
	c0.7-1,0.9-1.8,0.6-2.3C374.2,491,373.1,490.1,371.1,488.9z"/>
<path class="st0" d="M351,446.4c-11.3,30.6-37,55.2-71.1,63.5c-34,8.3-68.3-1.7-92.3-23.8l-86.4,21l23.8,4.8l-0.6,25.3l24.3-0.3
	l4.7,24.9l23.7-5.3l9.8,23.4l22.1-10.1l14.4,20.8l19.5-14.5l18.4,17.4l16-18.3l21.7,13.2l11.9-21.2l23.9,8.4l7.2-23.2l25.1,3.2
	l2.2-24.2l25.3-2.1l-2.8-24.1l24.3-7.3l-7.8-23l22.2-12.2l-12.4-20.9l19.2-16.6L351,446.4z M197.1,550.5l-4.8-2.3l0.3-2.6
	c-1,0.7-2,1.1-3,1.2c-1,0.1-2.1-0.1-3.2-0.6c-1.3-0.6-2.4-1.5-3.2-2.7c-0.8-1.2-1.3-2.5-1.4-3.7c-0.1-1.3,0-2.5,0.4-3.6
	c0.4-1.1,1.1-2.8,2.1-4.9l4.4-9.3c1.4-3,2.6-5.1,3.6-6.3c0.9-1.2,2.5-2,4.4-2.4c2-0.4,4.1-0.1,6.4,1c2.3,1.1,3.9,2.5,4.9,4.2
	c1,1.7,1.4,3.3,1.3,4.9c-0.2,1.6-0.9,3.6-2.1,6.2l-0.6,1.3l-7.7-3.7l1.4-2.8c0.8-1.8,1.3-2.9,1.4-3.4c0.1-0.5-0.2-0.9-0.7-1.2
	c-0.5-0.2-0.9-0.2-1.3,0.1c-0.4,0.3-0.9,1.2-1.6,2.8l-7.2,15c-0.7,1.4-1,2.4-1.1,2.9c0,0.5,0.2,0.9,0.7,1.2c0.5,0.3,1,0.2,1.5-0.2
	c0.4-0.4,1-1.3,1.7-2.8l1.8-3.7l-1.6-0.7l2.3-4.7l9.1,4.3L197.1,550.5z M223.5,552.6c-0.5,1-1.2,1.9-2.3,2.7
	c-1.1,0.9-2.3,1.4-3.8,1.6c-1.4,0.2-3,0-4.7-0.5c-1.9-0.6-3.5-1.3-4.7-2.4c-1.3-1.1-2.1-2.2-2.5-3.5c-0.4-1.3-0.5-2.5-0.3-3.7
	c0.2-1.2,0.9-3.7,2-7.4l5.7-19.6l8.2,2.4l-7.3,24.9c-0.4,1.5-0.6,2.4-0.6,2.8c0,0.5,0.3,0.7,0.7,0.9c0.5,0.1,0.9,0,1.2-0.4
	c0.3-0.4,0.7-1.4,1.1-3.1l7.1-24.5l8.2,2.4l-6.5,22.2C224.5,549.9,223.9,551.6,223.5,552.6z M239.4,561l0.3-6.2l-3-0.4l-1.3,6.1
	l-8.8-1.1l8.6-33.8l12.3,1.5L248,562L239.4,561z M264,561.8l-0.4-11.5c-0.1-1.9-0.2-3-0.5-3.4c-0.3-0.4-1-0.6-2.2-0.6l0.6,15.6
	l-8.5,0.3l-1.3-34.6l6.1-0.2c4-0.2,6.8-0.1,8.2,0.2c1.4,0.2,2.6,1.1,3.6,2.4c0.9,1.3,1.5,3.5,1.6,6.4c0.1,2.7-0.2,4.5-0.8,5.5
	c-0.6,0.9-1.8,1.5-3.7,1.8c1.7,0.4,2.9,0.9,3.5,1.7c0.6,0.7,1,1.4,1.2,2c0.1,0.6,0.3,2.3,0.4,5.1l0.3,9.1L264,561.8z M289.3,558.4
	l-1.7-6l-3,0.6l0.7,6.2l-8.7,1.8l-2.7-34.8l12.1-2.5l11.7,32.9L289.3,558.4z M345.3,533.1l-21.4-25.8l3.1,5.2l-4.4,2.6l14.3,23.7
	l-7.3,4.4l-14.3-23.7l-4.3,2.6l-2.4-3.9l11.7,30.1l-7,2.7l-9.9-13l5.7,14.6l-6.7,2.6L290,522.9l6.7-2.6l10.1,12.8l-5.7-14.5l6.3-2.4
	l0,0l15.9-9.5l-0.1-0.1l11-9.1l4.4,5.3l-4.4,3.6l4.2,5.1l4.1-3.4l4.2,5.1l-4.1,3.4l4.8,5.9l4.8-4l4.4,5.3L345.3,533.1z M360.6,519.8
	L335,496.6l9.6-10.6l5.1,4.6l-3.8,4.2l4.9,4.4l3.6-4l4.9,4.4l-3.6,4l5.7,5.1l4.2-4.6l5.1,4.6L360.6,519.8z M382.3,491.1
	c-0.4,1-1.1,2.4-2.2,4.1l-5.8,9.1l-29.1-18.7l3.5-5.4c2.2-3.5,3.9-5.7,5-6.8c1.1-1,2.3-1.6,3.4-1.7c1.2-0.2,2.3,0,3.3,0.4
	c1.1,0.5,2.9,1.5,5.7,3.3l10.2,6.5c2.6,1.7,4.3,3,5,3.7c0.7,0.8,1.2,1.7,1.3,2.6C382.7,489.2,382.6,490.1,382.3,491.1z"/>
<path class="st0" d="M283.3,547l2.9-0.6c-1.2-3.7-2.6-8.4-4.2-14C282.4,539.1,282.9,544,283.3,547z"/>
<path class="st0" d="M240.2,548.7c0-4,0.2-8.8,0.5-14.6c-1.7,6.5-2.8,11.2-3.4,14.2L240.2,548.7z"/>
<path class="st0" d="M146.5,395.6l-6.6,1.6c-1.9,0.4-3,0.7-4.4,1c-0.1,0-0.2,0.1-0.2,0.2c-0.1,1.4-0.3,2.8-0.7,4.7l-3.3,17.6
	c-0.4,2.1-0.7,3.5-1.1,4.9c0,0,0,0.1,0,0.2c0,0,0.1,0,0.2,0l6.5-1.5c0.1,0,0.2-0.1,0.2-0.2c0.1-1.5,0.3-3,0.7-4.9l0.8-4l4.6-1.1
	l0.1,0c5.9-1.4,10-5.8,11.1-11.6c0.5-2.8,0.2-4.7-1-5.9C151.9,395.1,149.7,394.8,146.5,395.6z M147.6,404c-0.4,2.1-1.8,3.6-3.8,4.1
	l0,0l-4.3,1l1.3-6.5l4.4-1c1-0.3,1.8-0.2,2.2,0.3C147.7,402.2,147.8,403,147.6,404z"/>
<path class="st0" d="M171.5,395.4c1.9-0.5,3-0.7,4.4-0.8h0c0.1,0,0.2-0.1,0.2-0.2l1.1-6.1c0,0,0,0,0-0.1c0-0.1-0.1-0.2-0.2-0.1h0
	c-1.2,0.4-2.1,0.7-3.8,1.1c-0.2,0.1-0.4,0.1-0.7,0.2l-9.6,2.3c-2.4,0.6-3.2,0.7-4.5,1c-0.1,0-0.2,0.1-0.2,0.2
	c-0.1,1.6-0.3,2.7-0.7,4.7l-3.4,17.8c-0.4,2.2-0.7,3.4-1.1,4.8c0,0.1,0,0.1,0,0.2c0,0,0.1,0.1,0.2,0c1.1-0.3,1.8-0.5,3.1-0.8
	c0.4-0.1,0.8-0.2,1.3-0.3l9.5-2.2c2.7-0.6,3.7-0.8,4.9-0.9h0c0.1,0,0.2-0.1,0.2-0.2l1.1-6.1c0-0.1,0-0.1,0-0.2c-0.1,0-0.1,0-0.2,0h0
	c-1.2,0.4-2.3,0.8-4,1.2c-0.3,0.1-0.6,0.1-0.9,0.2l-7.5,1.8l1-5.1l6.4-1.5c2.1-0.5,3.1-0.7,4.4-0.9h0c0.1,0,0.2-0.1,0.2-0.2l1.1-6
	V399c0-0.1-0.1-0.2-0.2-0.2h0c-1.6,0.6-2.3,0.8-3.7,1.1c-0.3,0.1-0.5,0.1-0.9,0.2l-6.3,1.5l0.8-4.4L171.5,395.4z"/>
<path class="st0" d="M182,413.3c0.1-1.5,0.3-2.6,0.7-4.8l1-5.2l3-0.7c0.9-0.2,1.6-0.1,2,0.3c0.6,0.5,0.8,1.2,1.2,3.7
	c0.4,2.2,0.5,3.6,0.5,4.7c0,0.1,0,0.1,0,0.1c0,0,0.1,0,0.1,0l7.1-1.7c0,0,0.1,0,0.1-0.1c0,0,0-0.1,0-0.1l-0.1-0.4
	c-0.4-1.3-0.6-2-0.7-2.8l-0.2-1c-0.5-2.4-0.7-3.3-0.9-4.2c-0.5-1.9-1-2.6-2.1-2.8c1.3-0.7,1.9-1.3,2.7-2.1c1.5-1.5,2.4-3.5,2.9-5.9
	c0.4-2.3,0.1-4-0.9-5c-1.1-1.1-3.1-1.4-5.6-0.8l-7.8,1.9c-2.1,0.5-3.2,0.7-4.5,1c-0.1,0-0.2,0.1-0.2,0.2c-0.1,1.5-0.3,2.7-0.7,4.7
	l-3.3,17.5c-0.5,2.5-0.7,3.4-1.2,4.9c0,0,0,0.1,0,0.2c0,0,0.1,0,0.2,0l6.5-1.5C181.9,413.5,182,413.4,182,413.3z M185.8,391.9
	l4.6-1.1c0.9-0.2,1.5-0.1,1.9,0.2c0.3,0.3,0.4,0.9,0.2,1.7c-0.3,1.8-1.5,3.1-3.2,3.5h0l-4.5,1L185.8,391.9z"/>
<path class="st0" d="M223.6,377.1L223.6,377.1C223.5,377.1,223.5,377.1,223.6,377.1c-1.2,0.4-2,0.7-3.7,1.1
	c-0.4,0.1-0.9,0.2-1.4,0.4l-8.7,2.1c-2.3,0.5-3.1,0.7-4.4,1c-0.1,0-0.2,0.1-0.2,0.2c-0.1,1.5-0.3,2.6-0.7,4.7l-3.2,16.9
	c-0.6,2.9-0.8,4.1-1.3,5.6c0,0.1,0,0.1,0,0.2c0,0,0.1,0.1,0.2,0l6.5-1.5c0.1,0,0.2-0.1,0.2-0.2c0-1.3,0.2-2.5,0.8-5.6l0.9-4.7
	l5.5-1.3c2.2-0.5,3.4-0.8,4.7-0.9h0c0.1,0,0.1-0.1,0.1-0.2l1.1-6c0,0,0-0.1,0-0.1c0-0.1-0.1-0.2-0.2-0.1h0h0c-1.3,0.4-2.3,0.7-4,1.2
	c-0.3,0-0.5,0.1-0.8,0.2l-5.4,1.3l0.9-4.9l6.8-1.6c2.4-0.6,3.6-0.8,5-1l0,0c0.1,0,0.2-0.1,0.2-0.2l1.2-6.2c0,0,0-0.1,0-0.1
	C223.7,377.2,223.6,377.1,223.6,377.1z"/>
<path class="st0" d="M244.7,372.2L244.7,372.2L244.7,372.2c-1.2,0.4-2.2,0.7-3.9,1.1c-0.2,0.1-0.4,0.1-0.7,0.2l-9.6,2.3
	c-2.4,0.6-3.2,0.7-4.4,0.9h0c-0.1,0.1-0.2,0.1-0.2,0.2c-0.1,1.5-0.3,2.7-0.6,4.7l-3.4,17.8c-0.4,2.2-0.7,3.4-1.2,4.8
	c0,0.1,0,0.1,0,0.2c0,0,0.1,0,0.2,0c1.1-0.3,1.8-0.5,3-0.8c0.4-0.1,0.9-0.2,1.5-0.3l9.5-2.3c2.7-0.6,3.7-0.8,4.9-0.9l0,0
	c0.1,0,0.2-0.1,0.2-0.2l1.2-6.1c0-0.1,0-0.1-0.1-0.2c0,0-0.1,0-0.1,0h0c-1.2,0.4-2.4,0.7-4.1,1.2c-0.3,0.1-0.6,0.1-0.9,0.2l-7.6,1.8
	l1-5.1l6.4-1.5c2.2-0.5,3.2-0.7,4.5-0.8h0c0.1,0,0.2-0.1,0.2-0.2l1.1-6v0c0-0.1-0.1-0.2-0.2-0.2h0c-1.6,0.5-2.3,0.8-3.6,1.1
	c-0.3,0.1-0.6,0.1-0.9,0.2l-6.3,1.5l0.9-4.4l7.7-1.8c1.9-0.4,3-0.6,4.4-0.8h0c0.1-0.1,0.2-0.1,0.2-0.2l1.2-6.1c0,0,0,0,0-0.1
	C244.8,372.2,244.7,372.1,244.7,372.2z"/>
<path class="st0" d="M258.4,374.3L258.4,374.3c1.2-0.3,2.2-0.2,2.8,0.3c0.7,0.5,1,1.5,1,2.9c0,0.1,0,0.1,0.1,0.1c0,0,0.1,0,0.1,0h0
	l6.5-2.8c0.1-0.1,0.2-0.1,0.2-0.2c0-1.8-0.3-3-1.1-4.1c-1.4-2.4-4.3-3.2-8.2-2.2l-0.2,0c-3.5,0.9-6.8,2.8-9.3,5.5
	c-2.9,3.2-4.9,7.2-5.8,11.7c-0.9,4.4-0.3,8,1.5,10c1.7,1.9,4.6,2.4,8.4,1.5l0.1,0c3.6-0.9,6.8-2.8,9.1-5.6c1.6-1.9,2.6-3.7,3.7-6.6
	c0-0.1,0-0.1,0-0.2c0,0-0.1-0.1-0.1-0.1l-6.1,0.5h0c-0.1,0-0.2,0.1-0.2,0.2c-0.4,1.4-0.8,2.1-1.4,2.9c-1.1,1.5-2.6,2.5-4.2,2.9h0
	c-1.5,0.3-2.6,0.2-3.3-0.6c-1.1-1.1-1.4-3.3-0.8-6.3C252.2,378.7,254.8,375.1,258.4,374.3z"/>
<path class="st0" d="M283.9,368.3L283.9,368.3c1.2-0.3,2.2-0.2,2.8,0.3c0.7,0.5,1,1.5,1,2.9c0,0,0,0.1,0.1,0.1c0.1,0,0.1,0,0.1,0h0
	l6.5-2.8c0.1-0.1,0.1-0.1,0.1-0.2c0-1.8-0.3-3-1-4.1c-1.4-2.4-4.3-3.2-8.3-2.2l-0.1,0c-3.5,0.8-6.8,2.8-9.3,5.4
	c-2.9,3.1-4.9,7.2-5.8,11.7c-0.9,4.4-0.3,8,1.5,9.9c1.7,1.9,4.6,2.4,8.4,1.5l0.2,0c3.6-0.9,6.8-2.8,9.1-5.6c1.6-1.9,2.6-3.7,3.7-6.6
	c0-0.1,0-0.1,0-0.2c0-0.1-0.1-0.1-0.2-0.1l-6.1,0.5h0c-0.1,0-0.1,0.1-0.2,0.2c-0.4,1.4-0.8,2.1-1.4,2.9c-1.1,1.5-2.6,2.5-4.2,2.9h0
	c-1.5,0.3-2.6,0.1-3.4-0.6c-1.1-1.1-1.4-3.3-0.8-6.3C277.7,372.7,280.3,369.1,283.9,368.3z"/>
<path class="st0" d="M300.7,385.2c0.1-1.3,0.3-2.5,0.7-4.7l3.3-17.5c0.4-2.3,0.7-3.4,1.2-4.9c0-0.1,0-0.1,0-0.2c0,0-0.1,0-0.2,0
	l-6.6,1.6c-0.1,0-0.2,0.1-0.2,0.2c-0.1,1.3-0.2,2.3-0.7,4.8l-3.3,17.5c-0.4,2.3-0.7,3.6-1.1,4.8c0,0.1,0,0.1,0,0.2
	c0.1,0,0.1,0.1,0.2,0l6.7-1.6C300.7,385.4,300.7,385.3,300.7,385.2z"/>
<path class="st0" d="M318.6,351.5c-0.1,0.1-0.1,0.2,0,0.2l1.2,2c0,0,0.1,0.1,0.1,0.1c0,0,0.1,0,0.1,0l9.5-6.8c0.1,0,0.1-0.1,0.1-0.1
	c0,0,0-0.1,0-0.1l-1.9-3.2l-1.7,0.4L318.6,351.5z"/>
<path class="st0" d="M321,353.8l-0.1,0c-7.4,1.8-13.3,8.6-14.9,17.2c-0.9,4.6-0.3,8.1,1.8,10.1c1.8,1.7,4.5,2.2,7.9,1.4l0.1,0
	c7.3-1.8,13.3-8.8,15-17.4c0.9-4.5,0.3-7.9-1.7-9.9C327.2,353.4,324.5,352.9,321,353.8z M324,366.7c-1,5.2-3.8,8.9-7.3,9.8l0,0
	c-1.4,0.3-2.5,0.1-3.3-0.6c-1.1-1.1-1.4-3.3-0.8-6.4c1-5.1,3.8-8.8,7.3-9.7l0.1,0c1.4-0.3,2.5-0.1,3.3,0.6
	C324.3,361.5,324.6,363.6,324,366.7z"/>
<path class="st0" d="M330.9,378.3l6.4-1.5c0.1,0,0.2-0.1,0.2-0.2c0.1-1.3,0.3-2.7,0.7-5l1.4-7.3c0.2-1.4,0.5-2.8,0.6-3.9
	c0.4,1,0.7,1.8,1.2,2.7l3.8,7.8c0.7,1.5,1.2,2.5,1.5,3.6c0,0.1,0.1,0.1,0.2,0.1l6.6-1.6c0.1,0,0.1-0.1,0.2-0.2
	c0.1-1.5,0.3-3,0.7-4.8l3.3-17.3c0.4-2.2,0.7-3.5,1.2-5c0-0.1,0-0.1,0-0.2c0,0-0.1-0.1-0.2,0l-6.4,1.5c-0.1,0-0.2,0.1-0.2,0.2
	c-0.1,1.4-0.3,2.7-0.7,4.9l-1.4,7.4c-0.3,1.5-0.5,2.7-0.7,4c-0.4-1-0.7-1.7-1.2-2.7l-4-7.9c-0.8-1.5-1.2-2.7-1.3-3.5
	c0-0.1-0.1-0.2-0.2-0.1l-6.6,1.5c-0.1,0-0.2,0.1-0.2,0.2c-0.1,1.4-0.3,2.7-0.7,4.8l-3.2,17.2c-0.5,2.5-0.8,3.9-1.2,5.2
	c0,0.1,0,0.1,0,0.2C330.8,378.3,330.9,378.3,330.9,378.3z"/>
<path class="st0" d="M108.2,443.3c-2.3-2.3-6-3-10.7-1.9l-0.2,0c-10.1,2.5-18,11.6-20.3,23.2c-1.2,6.2-0.4,10.9,2.3,13.6
	c2.4,2.4,6.1,3,10.8,1.9l0.2,0c2.9-0.7,5.2-1.8,7.7-3.7c2.1,2.1,2.5,2.6,3.2,3.5c0,0.1,0.1,0.1,0.2,0.1h0c0.1,0,0.2-0.1,0.2-0.1
	l5.6-6.4c0,0,0.1-0.2,0.1-0.2c0-0.1,0-0.2-0.1-0.2c-0.7-0.4-1.3-0.9-2.1-1.7l-1-1c3.5-4.7,5.2-8.5,6.2-13.7
	C111.7,450.6,110.8,445.9,108.2,443.3z M101.5,458.8c-0.5,2.7-1.2,4.6-2.3,6.6c-1.7-1.7-1.7-1.7-2.2-2.4c0-0.1-0.1-0.1-0.2-0.1h0
	c-0.1,0-0.2,0-0.2,0.1l-5.6,6c0,0.1-0.1,0.2-0.1,0.2c0,0.1,0,0.2,0.1,0.2c0.8,0.6,1.4,1.1,2.3,1.9c-0.5,0.3-1,0.5-1.6,0.6v0.2h0
	l0-0.1c-1.9,0.4-3.5,0.1-4.4-1c-1.4-1.5-1.8-4.5-1-8.6c1.3-6.7,5-11.7,9.7-12.8l0.1,0c2-0.5,3.4-0.2,4.4,0.8
	C101.9,451.9,102.3,454.8,101.5,458.8z"/>
<path class="st0" d="M125.2,442.3c0.6-3.3,1-5,1.6-6.7c0-0.1,0-0.2-0.1-0.3c-0.1,0-0.1-0.1-0.3,0l-8.8,2.1c-0.2,0-0.3,0.2-0.3,0.4
	c-0.1,1.5-0.3,3.3-0.9,6.5l-2.9,15c-0.9,5-0.5,8.6,1.5,10.8c2,2.3,5.9,2.8,11,1.6l0.2,0c9.8-2.4,16.5-9.5,18.4-19.5l2.9-15.1
	c0.6-3.1,1-4.8,1.5-6.7c0-0.1,0-0.2,0-0.3c0-0.1-0.1-0.1-0.3-0.1l-8.7,2.1c-0.2,0-0.3,0.2-0.3,0.3c-0.2,1.8-0.3,3.1-0.9,6.5l-2.9,15
	c-1,5.4-3.7,8.4-8.3,9.5l-0.1,0.1c-2.2,0.5-3.7,0.3-4.5-0.6c-1-0.9-1.2-2.9-0.7-5.6L125.2,442.3z"/>
<path class="st0" d="M171.2,432.6c2.6-0.6,4.1-0.9,6-1.1l0,0c0.1,0,0.3-0.2,0.3-0.3l1.5-8.2c0,0,0-0.1,0-0.1c0-0.2-0.1-0.3-0.3-0.2
	h0c-1.6,0.6-2.9,0.9-5.1,1.5c-0.3,0.1-0.6,0.1-1,0.2l-12.9,3.1c-3.2,0.8-4.3,1-5.9,1.3v0c-0.2,0-0.3,0.2-0.3,0.3
	c-0.2,2.1-0.4,3.6-0.9,6.3l-4.6,24c-0.5,3-0.9,4.6-1.5,6.4c0,0.1,0,0.2,0,0.3c0.1,0.1,0.1,0.1,0.3,0.1h0c1.3-0.4,2.3-0.6,4.1-1.1
	c0.5-0.2,1.1-0.3,1.9-0.5l12.8-3c3.7-0.9,5-1.1,6.6-1.3l0,0c0.1,0,0.3-0.1,0.3-0.3l1.5-8.2c0-0.1,0-0.2-0.1-0.3
	c-0.1,0-0.1-0.1-0.2,0h0c-1.6,0.6-3.2,1-5.4,1.6c-0.4,0.1-0.8,0.2-1.2,0.3l-10.1,2.4l1.3-6.7l8.5-2c2.9-0.7,4.3-0.9,6-1.1l0,0
	c0.1,0,0.3-0.1,0.3-0.3l1.5-8.1c0-0.1,0-0.1,0-0.1c0-0.2-0.1-0.3-0.3-0.2h0h0c-2.1,0.7-3.1,1-4.9,1.5c-0.3,0.1-0.8,0.2-1.2,0.3
	l-8.4,2l1.1-5.8L171.2,432.6z"/>
<path class="st0" d="M225.9,424.4c5.1-1.2,7.6-1.7,10.5-2.1h0c0.1,0,0.3-0.1,0.3-0.3l2.5-13v-0.1c0-0.2-0.2-0.3-0.3-0.2v0h0h0
	c-2.4,0.9-4.2,1.4-7.7,2.3c-0.9,0.2-1.9,0.5-3,0.7l-18.3,4.4c-4.9,1.1-6.7,1.5-9.2,2l0,0c-0.2,0-0.3,0.2-0.3,0.3
	c-0.3,3.2-0.6,5.5-1.4,9.9l-6.7,35.6c-1.2,6-1.8,8.8-2.8,11.9c0,0.1,0,0.2,0,0.3c0.1,0.1,0.2,0.1,0.3,0.1l13.7-3.2
	c0.2,0,0.3-0.2,0.3-0.4c0.1-2.9,0.5-5.3,1.8-11.8l1.8-9.8l11.7-2.8c4.7-1.1,7.3-1.6,10.1-1.9h0c0.1,0,0.2-0.1,0.3-0.3l2.4-12.7
	c0,0,0-0.1,0-0.1c0-0.1-0.1-0.3-0.3-0.2h0c-2.6,0.9-4.8,1.6-8.3,2.4c-0.6,0.1-1.2,0.3-1.9,0.5l-11.6,2.7l2-10.6L225.9,424.4z"/>
<path class="st0" d="M233.3,465.7l14-3.3c0.2,0,0.3-0.2,0.3-0.4c0.2-2.7,0.5-5.3,1.4-10l7-36.8c0.9-4.9,1.5-7.3,2.4-10.2
	c0-0.1,0-0.2,0-0.3c-0.1-0.1-0.2-0.1-0.3-0.1l-14,3.3c-0.2,0-0.3,0.2-0.3,0.3c-0.2,2.9-0.4,4.8-1.4,10l-7,36.9
	c-0.9,4.8-1.6,7.6-2.4,10.2c0,0.1,0,0.2,0,0.3C233.1,465.7,233.2,465.7,233.3,465.7z"/>
<path class="st0" d="M255.1,460.7L255.1,460.7c2-0.6,4.1-1.1,6.7-1.8c0.8-0.2,1.7-0.4,2.7-0.6l19.3-4.6c5.2-1.2,8.2-1.8,10.5-2h0
	c0.2,0,0.3-0.2,0.3-0.3l2.5-13.2v-0.1c0-0.2-0.1-0.3-0.3-0.3h0c-2.4,0.9-4.3,1.5-7.8,2.3c-0.8,0.2-1.7,0.4-2.8,0.6l-15,3.6l6.4-33.7
	c1-5.3,1.5-7.3,2.6-11c0-0.1,0-0.2,0-0.3c-0.1-0.1-0.2-0.1-0.3-0.1l-13.9,3.3c-0.1,0-0.3,0.2-0.3,0.3c-0.2,3.2-0.7,6-1.6,10.9
	l-6.9,36.3c-0.9,4.8-1.6,7.8-2.4,10.1c0,0.1,0,0.2,0,0.3C254.9,460.7,255,460.7,255.1,460.7z"/>
<path class="st0" d="M306.4,448c0,0.1,0,0.2,0,0.3c0.1,0,0.1,0.1,0.3,0l14-3.3c0.2,0,0.3-0.2,0.3-0.3c0.2-3,0.6-5.9,1.5-10.2
	L329,400l6.9-1.6c4.4-1,6.9-1.5,9.8-1.9h0c0.1,0,0.3-0.2,0.3-0.3l2.5-13.1c0,0,0-0.1,0-0.1c0-0.2-0.2-0.3-0.3-0.2h0l0,0
	c-2.8,0.9-5.1,1.6-8.5,2.4c-0.5,0.1-1,0.2-1.5,0.4l-27.9,6.6c-3.6,0.8-7.1,1.5-9.3,1.7l0,0c-0.1,0-0.3,0.1-0.3,0.3l-2.5,13.1
	c0,0.1,0,0.2,0.1,0.3c0,0,0.2,0.1,0.2,0h0c3.7-1.2,5.2-1.7,7.9-2.3c0.5-0.1,1.1-0.3,1.7-0.4l7.1-1.7l-6.5,34.2
	C308,441.9,307.3,444.8,306.4,448z"/>
<path class="st0" d="M392.7,388.1c0.9-4.8,0.3-8.4-1.9-10.5c-2.3-2.3-6.4-2.9-11.7-1.6l-16.5,3.9c-4.4,1-6.7,1.5-9.4,2
	c-0.2,0.1-0.3,0.2-0.3,0.3c-0.2,3.2-0.6,5.7-1.4,10l-7,37c-1,5.1-1.5,7.2-2.5,10.4c0,0.1,0,0.2,0,0.3c0.1,0.1,0.2,0.1,0.3,0.1
	l13.7-3.2c0.2,0,0.3-0.2,0.3-0.4c0.2-3.1,0.6-5.6,1.5-10.2l2.1-11l6.3-1.5c2-0.5,3.4-0.3,4.4,0.6c1.2,1.1,1.7,2.5,2.6,7.9
	c0.8,4.8,1.1,7.7,1.1,10c0,0.1,0,0.2,0.1,0.2c0.1,0,0.1,0,0.2,0l14.9-3.5c0.1,0,0.2-0.1,0.2-0.2c0.1-0.1,0.1-0.2,0.1-0.3l-0.3-0.8
	c-0.8-2.7-1.1-4.1-1.4-5.7l-0.2-1.1c-1.3-5.9-1.7-7.9-2.2-9.8c-1-4-2.1-5.5-4.7-6c2.8-1.6,4.2-2.7,6-4.5
	C389.7,397.3,391.7,393,392.7,388.1z M378.6,392.9c-0.7,3.7-3.3,6.6-6.9,7.5h-0.1l-9.5,2.3l2.2-11.6l9.7-2.3c1.9-0.4,3.3-0.3,4,0.4
	C378.7,389.9,378.9,391.2,378.6,392.9z"/>
<path class="st0" d="M430.3,419c0.1,0.1,0.2,0.1,0.3,0.1l14.9-3.5c0.1,0,0.2-0.1,0.2-0.2c0.1-0.1,0.1-0.2,0.1-0.3
	c-0.5-1.7-0.9-4.2-1.5-7.6l-5.9-38.1c-0.6-3.4-0.7-5.1-0.8-6.9c0-0.1,0-0.2-0.1-0.2c-0.1-0.1-0.1-0.1-0.2-0.1l-16.6,3.9
	c-0.1,0-0.3,0.1-0.3,0.3c-0.7,2-1.6,4.1-3.4,7.8l-21.6,44.6c-2.4,5.1-3.3,6.9-4.6,9.1c-0.1,0.1-0.1,0.2,0,0.4
	c0.1,0.1,0.2,0.1,0.3,0.1l14.9-3.5c0.1,0,0.3-0.1,0.3-0.3c0.8-2.6,1.7-4.9,3-7.8l2.7-6l17.7-4.2l0.6,5.2c0.2,2,0.2,3.7,0.1,7
	C430.2,418.8,430.3,418.9,430.3,419z M417.5,397.8l9.1-20.4l2,17.8L417.5,397.8z"/>
<path class="st0" d="M327,342.9c0,0,0.1-0.1,0.1-0.1h0c0,0,0.1,0.1,0.2,0.1l0.4,0.6l132.1-32.7l4.8-6.4L53.8,411.2L326,343.9
	L327,342.9z"/>
<path class="st0" d="M327.1,342.8L327.1,342.8c-0.1,0-0.1,0.1-0.1,0.1l-1,1l1.7-0.4l-0.4-0.6C327.2,342.8,327.2,342.8,327.1,342.8z"
	/>
<polygon class="st0" points="73.5,506.9 512.2,408.4 517,402 "/>
<path class="st0" d="M262.6,540.4c-0.4,0.3-1,0.5-2,0.5l-0.3-7.7c1-0.1,1.7,0.1,2.1,0.5c0.4,0.3,0.6,1,0.7,2.1l0.1,1.9
	C263.1,539.2,263,540.1,262.6,540.4z"/>
<polygon class="st0" points="307.4,516.1 308.6,518.1 307.8,516 "/>
<polygon class="st0" points="323.4,506.6 323.9,507.3 323.5,506.5 "/>
<path class="st0" d="M373.9,493.9l-19.1-12.3c0.5-0.8,0.9-1.3,1.3-1.4c0.3-0.2,0.7-0.2,1.2,0c0.4,0.2,1.3,0.7,2.6,1.5l11.3,7.3
	c1.9,1.2,3,2.1,3.3,2.6C374.8,492,374.6,492.8,373.9,493.9z"/>
</svg>
